<svg xmlns="http://www.w3.org/2000/svg" viewBox="0 0 90 54.54"><defs><style>.cls-1{fill:#006fba;}</style></defs><g id="katman_2" data-name="katman 2"><g id="katman_1-2" data-name="katman 1"><path class="cls-1" d="M32.45,18.37q0,9,0,18.08c0,.36-.05.31.32.31H54.18a3.41,3.41,0,0,0,2.21-.87,3.55,3.55,0,0,0,1.19-2.7V30.11c0-.34,0-.3-.3-.3H39.68c-.32,0-.29,0-.29-.28V22.14c0-.32,0-.28.29-.28H50.6a3.36,3.36,0,0,0,3-1.9,3.7,3.7,0,0,0,.4-1.76c0-1,0-2,0-3,0-.33,0-.29-.3-.29h-14c-.31,0-.28,0-.28-.28V7.24c0-.32,0-.28.29-.28H54.14a3.38,3.38,0,0,0,2.37-1,3.58,3.58,0,0,0,1.07-2.59V.32c0-.37,0-.31-.32-.31H32.75c-.35,0-.3,0-.3.3q0,9,0,18.06"/><path class="cls-1" d="M62.4,36.76H69c.2,0,.2,0,.2-.2v-.14c0-3.89,0-7.79,0-11.68a.85.85,0,0,1,.32-.75c.25-.21.45-.46.69-.7l.73.71q3.7,3.72,7.43,7.43c1.44,1.44,2.88,2.89,4.33,4.32a3.32,3.32,0,0,0,3,.94,3.56,3.56,0,0,0,2-1c.61-.61,1.21-1.22,1.83-1.82l.54-.52a.69.69,0,0,0-.18-.22l-2.71-2.7L83.3,26.59l-7.45-7.44-.67-.66c-.08-.08-.09-.13,0-.21l.4-.38,6.36-6.37,7.89-7.88A.65.65,0,0,0,90,3.48l0,0C89.12,2.6,88.31,1.76,87.47,1A3.32,3.32,0,0,0,85.2,0a3.36,3.36,0,0,0-2.59,1L80.19,3.45l-7.35,7.34c-1.16,1.16-2.32,2.33-3.49,3.48a1,1,0,0,1-.18.17,1,1,0,0,1,0-.29V.16c0-.11,0-.17-.16-.16H62.52c-.33,0-.33,0-.33.33V36.56c0,.2,0,.2.21.2"/><path class="cls-1" d="M25.73,32.29a10.92,10.92,0,0,0-1.09-14.18,10.17,10.17,0,0,0-1.05-.92c-.15-.12-.16-.1,0-.27l.05-.08a10.72,10.72,0,0,0,1.5-8.12,10.55,10.55,0,0,0-3.92-6.35A10.6,10.6,0,0,0,14.42,0H.3C0,0,0,0,0,.3V36.42a1.08,1.08,0,0,1,0,.18c0,.11,0,.18.16.16H17a10.24,10.24,0,0,0,2-.19,10.75,10.75,0,0,0,6.79-4.28M7,7.21c0-.28,0-.25.25-.25h7.19a4,4,0,0,1,.69,7.89,4.49,4.49,0,0,1-.73.06H7.21c-.28,0-.26,0-.26-.27Zm9.88,22.6H7.08c-.08,0-.13,0-.13-.12a.57.57,0,0,0,0-.13V22.12A.66.66,0,0,0,7,22c0-.08,0-.13.13-.12h9.83a4,4,0,0,1,.51,7.92,5.83,5.83,0,0,1-.59,0"/><path class="cls-1" d="M0,42.57H3.24C4.83,42.57,6,43.16,6,45a2,2,0,0,1-1.45,2.1v0a2,2,0,0,1,1.75,2.23c0,1.51-.74,2.81-3,2.81H0Zm1.94,3.94h.55c1.08,0,1.55-.35,1.55-1.27S3.61,44,2.64,44h-.7Zm0,4.24h.75c.93,0,1.56-.34,1.56-1.46s-.63-1.44-1.48-1.44H1.94Z"/><path class="cls-1" d="M11.14,51.33h0a2,2,0,0,1-1.84,1c-1.17,0-1.84-.62-1.84-2.06V44.93H9.28v5c0,.74.25,1,.8,1s1-.41,1-1.2V44.93h1.85v7.24H11.14Z"/><path class="cls-1" d="M14.15,44.94h1.78v1h0a1.85,1.85,0,0,1,1.66-1.15l.34,0v1.78c-.2,0-.38,0-.58,0A1.26,1.26,0,0,0,16,47.83v4.34H14.15Z"/><path class="cls-1" d="M20,49.8v.25a.93.93,0,0,0,1,1.05c.58,0,.94-.29.94-.86s-.31-.68-.67-.83l-1.31-.47a2,2,0,0,1-1.54-2c0-1.19.76-2.18,2.66-2.18,1.68,0,2.48.75,2.48,2.06v.29H21.85c0-.74-.22-1.09-.82-1.09a.79.79,0,0,0-.88.78c0,.36.18.65.81.85l1.11.38a1.94,1.94,0,0,1,1.61,2.07c0,1.52-1.13,2.27-2.69,2.27-2.1,0-2.67-.9-2.67-2.3V49.8Z"/><path class="cls-1" d="M24.59,47.15V47c0-1.67,1.14-2.23,2.54-2.23,2.21,0,2.63.91,2.63,2.22v3.8a3.05,3.05,0,0,0,.23,1.4H28.21a2.72,2.72,0,0,1-.23-.75h0a1.78,1.78,0,0,1-1.84.94c-1.29,0-1.75-1.1-1.75-2.07,0-1.37.55-1.91,1.83-2.26l1-.28c.55-.15.74-.37.74-.85s-.23-.89-.86-.89-.86.36-.86.94v.2ZM28,48.55a2.07,2.07,0,0,1-.79.37c-.76.16-1.05.52-1.05,1.17s.2,1,.7,1A1.09,1.09,0,0,0,28,50Z"/><polygon class="cls-1" points="39.72 42.57 39.72 44.15 36.29 44.15 36.29 46.41 39.52 46.41 39.52 48 36.29 48 36.29 50.59 39.86 50.59 39.86 52.17 34.36 52.17 34.36 42.57 39.72 42.57"/><path class="cls-1" d="M44.26,47.54c0-.7-.14-1.45-.84-1.45-.91,0-1.06.81-1.06,2.48s.18,2.53,1,2.53c.63,0,.9-.52.9-1.7H46c0,1.9-.78,3-2.75,3s-2.78-.9-2.78-3.81,1.21-3.8,2.94-3.8S46,45.82,46,47.54Z"/><polygon class="cls-1" points="46.7 50.75 49.6 46.44 46.84 46.44 46.84 44.94 51.79 44.94 51.79 46.36 48.9 50.66 51.79 50.66 51.79 52.17 46.7 52.17 46.7 50.75"/><path class="cls-1" d="M52.72,47.15V47c0-1.67,1.14-2.23,2.54-2.23,2.21,0,2.62.91,2.62,2.22v3.8a3.19,3.19,0,0,0,.23,1.4H56.34a2.72,2.72,0,0,1-.23-.75h0a1.78,1.78,0,0,1-1.84.94c-1.29,0-1.75-1.1-1.75-2.07,0-1.37.55-1.91,1.83-2.26l1-.28c.55-.15.74-.37.74-.85s-.23-.89-.86-.89-.86.36-.86.94v.2Zm3.39,1.4a2.11,2.11,0,0,1-.8.37c-.75.16-1.05.52-1.05,1.17s.21,1,.71,1A1.09,1.09,0,0,0,56.11,50Z"/><rect class="cls-1" x="59.18" y="47.49" width="3.79" height="1.59"/><polygon class="cls-1" points="66.17 42.57 66.17 46.41 66.2 46.41 68.65 42.57 70.74 42.57 68.14 46.68 71.04 52.17 68.86 52.17 66.88 48.23 66.17 49.32 66.17 52.17 64.23 52.17 64.23 42.57 66.17 42.57"/><path class="cls-1" d="M74,44.75c2.22,0,2.86,1.27,2.86,3.8s-.74,3.81-2.86,3.81-2.85-1.28-2.85-3.81.74-3.8,2.85-3.8m0,6.35c.76,0,1-.73,1-2.55S74.77,46,74,46c-.91,0-1,1.06-1,2.54s.08,2.55,1,2.55"/><path class="cls-1" d="M80.47,44.75c2.22,0,2.85,1.27,2.85,3.8s-.74,3.81-2.85,3.81-2.85-1.28-2.85-3.81.74-3.8,2.85-3.8m0,6.35c.75,0,1-.73,1-2.55s-.25-2.54-1-2.54c-.91,0-1,1.06-1,2.54s.09,2.55,1,2.55"/><path class="cls-1" d="M84.32,44.93h1.77v.77h0a1.74,1.74,0,0,1,1.64-1c1.52,0,2.22,1.11,2.22,3.8s-.7,3.81-2.22,3.81a1.73,1.73,0,0,1-1.56-.86h0v3H84.32Zm2.84,6c.8,0,1-.8,1-2.38s-.16-2.38-1-2.38-1,.81-1,2.38.16,2.38,1,2.38"/></g></g></svg>